<svg width="113" height="113" viewBox="0 0 113 113" fill="none" xmlns="http://www.w3.org/2000/svg">
<path d="M0 98.4297C0 106.478 6.52334 113 14.5703 113H98.4297C106.478 113 113 106.477 113 98.4297V14.5703C113 6.52245 106.477 0 98.4297 0H14.5703C6.52245 0 0 6.52334 0 14.5703V98.4297Z" fill="#717171" fill-opacity="0.16"/>
<path d="M46.8586 49.984V33.9815H60.9447C62.2862 33.9815 63.5798 34.0933 64.8255 34.3169C66.0712 34.5405 67.1732 34.9397 68.1314 35.5147C69.0897 36.0896 69.8562 36.8881 70.4312 37.9102C71.0061 38.9324 71.2936 40.2419 71.2936 41.839C71.2936 44.7137 70.4312 46.7899 68.7064 48.0675C66.9815 49.3452 64.7776 49.984 62.0945 49.984H46.8586ZM31.8143 22.291V90.709H64.9693C68.0356 90.709 71.0221 90.3257 73.9287 89.5591C76.8354 88.7925 79.4226 87.6107 81.6905 86.0136C83.9583 84.4166 85.7629 82.3564 87.1045 79.833C88.446 77.3097 89.1168 74.3232 89.1168 70.8735C89.1168 66.5934 88.0787 62.9362 86.0025 59.9017C83.9263 56.8673 80.7801 54.7432 76.5639 53.5295C79.6303 52.0602 81.946 50.1757 83.5111 47.8759C85.0762 45.5761 85.8588 42.7014 85.8588 39.2518C85.8588 36.0576 85.3317 33.3746 84.2777 31.2026C83.2236 29.0306 81.7384 27.2898 79.8219 25.9802C77.9054 24.6706 75.6057 23.7284 72.9226 23.1534C70.2395 22.5785 67.269 22.291 64.011 22.291H31.8143ZM46.8586 79.0185V60.2371H63.2444C66.5024 60.2371 69.1216 60.9877 71.102 62.489C73.0823 63.9902 74.0725 66.4976 74.0725 70.0111C74.0725 71.7998 73.769 73.2691 73.1622 74.419C72.5553 75.5689 71.7408 76.4792 70.7187 77.15C69.6965 77.8207 68.5147 78.2998 67.1732 78.5873C65.8317 78.8748 64.4263 79.0185 62.957 79.0185H46.8586Z" fill="#1B1B1B"/>
</svg>
