<svg width="82" height="114" viewBox="0 0 82 114" fill="none" xmlns="http://www.w3.org/2000/svg">
<path d="M29.084 10.2954V15.204H16.5323V0H29.084V5.37945H21.9117V10.2954H29.084ZM41.9869 5.37945H47.0012V0H34.4481C34.4481 0 34.4481 2.70021 34.4481 5.37945C36.1275 7.05883 37.0032 7.86274 39.4321 10.2916C38.0122 10.2916 34.4481 10.2963 34.4481 10.2963V15.204H47.0012V10.2954L41.9869 5.37945ZM59.7784 5.37945H64.7922V0H52.2395C52.2395 0 52.2395 2.70021 52.2395 5.37945C53.9185 7.05883 54.7946 7.86274 57.2233 10.2916C55.8043 10.2916 52.2395 10.2963 52.2395 10.2963V15.204H64.7924V10.2954L59.7784 5.37945ZM81.3249 22.4298L73.6998 105.025L40.6622 113.92L7.62398 105.025L0 22.4298H81.3249ZM65.9606 39.2241H40.6324H14.8565L16.0891 49.198H40.6324H42.011L40.6324 49.7719L16.9862 59.6205L17.7705 69.3695L40.6324 69.4438L52.8856 69.4828L52.1007 82.4824L40.6324 85.7114V85.7012L40.5383 85.727L29.4619 82.931L28.7898 74.8618H28.7532H18.4792H18.4431L19.7878 90.4397L40.6324 96.6037V96.5925L40.6698 96.6037L61.4029 90.5518L64.0931 59.6208H40.6324H40.5744L40.6324 59.5958L64.9516 49.1983L65.9606 39.2241Z" fill="#717171" fill-opacity="0.16"/>
</svg>
