<svg width="99" height="99" viewBox="0 0 99 99" fill="none" xmlns="http://www.w3.org/2000/svg">
<path d="M2.96797 54.402C0.260678 51.6947 0.260678 47.3053 2.96797 44.598L44.598 2.96797C47.3053 0.260678 51.6947 0.260678 54.402 2.96797L96.0319 44.598C98.7393 47.3053 98.7393 51.6947 96.0319 54.402L54.402 96.0319C51.6947 98.7393 47.3053 98.7393 44.598 96.0319L2.96797 54.402Z" fill="#717171" fill-opacity="0.16"/>
<path d="M36.1415 11.5571L31.9259 15.7728L42.814 26.6609C42.3735 27.6059 42.1275 28.6598 42.1275 29.7711C42.1275 32.9263 44.1099 35.6184 46.8971 36.6698V63.3049C44.1099 64.3563 42.1275 67.0484 42.1275 70.2036C42.1275 74.2745 45.4277 77.5747 49.4986 77.5747C53.5695 77.5747 56.8697 74.2745 56.8697 70.2036C56.8697 67.3432 55.2404 64.8631 52.8591 63.6414V36.7062L63.2671 47.1142C62.8481 48.04 62.615 49.0678 62.615 50.15C62.615 54.221 65.9152 57.5211 69.9861 57.5211C74.057 57.5211 77.3572 54.221 77.3572 50.15C77.3572 46.0791 74.057 42.7789 69.9861 42.7789C69.1949 42.7789 68.4331 42.9035 67.7186 43.1341L56.5405 31.9561C56.7545 31.2658 56.8697 30.5318 56.8697 29.7711C56.8697 25.7001 53.5695 22.4 49.4986 22.4C48.7379 22.4 48.0043 22.5152 47.3136 22.7292L36.1415 11.5571Z" fill="#1B1B1B"/>
</svg>
