<svg width="80" height="113" viewBox="0 0 80 113" fill="none" xmlns="http://www.w3.org/2000/svg">
<path d="M7.44302 0H12.5326V5.0286H17.1884V0H22.2785V15.2275H17.1889V10.1281H12.5331V15.2275H7.44346V0H7.44302ZM28.9713 5.04982H24.4909V0H38.5439V5.04982H34.0613V15.2275H28.9717V5.04982H28.9713ZM40.774 0H46.0819L49.346 5.35057L52.6074 0H57.916V15.2275H52.8472V7.68013L49.3458 13.0941H49.2585L45.7546 7.68013V15.2275H40.774V0ZM60.4495 0H65.5404V10.1944H72.6982V15.2275H60.4495V0ZM0 22.1918L7.28038 103.851L39.9508 112.92L72.7119 103.838L80 22.1916L0 22.1918ZM64.8136 41.5704L64.3578 46.6478L64.1576 48.8992H64.1246H40.0001H39.9652H25.8322L26.7475 59.1541H39.9652H40.0001H60.5468H63.2458L63.0014 61.8439L60.648 88.2111L60.4973 89.9021L40.0001 95.5832V95.585L39.9541 95.598L19.4387 89.9025L18.0352 74.1774H22.6692H28.0891L28.8022 82.1649L39.9559 85.1773L39.9652 85.1744V85.1736L51.1359 82.1594L52.2976 69.17H40.0001H39.9652H17.588L15.1265 41.5704L14.8867 38.8839H39.9652H40.0001H65.0534L64.8136 41.5704Z" fill="#717171" fill-opacity="0.16"/>
</svg>
