<svg width="219" height="62" viewBox="0 0 219 62" fill="none" xmlns="http://www.w3.org/2000/svg">
<path fill-rule="evenodd" clip-rule="evenodd" d="M207.363 4.58228L218.818 4.64522C218.818 4.64522 197.52 33.5041 195.782 35.8562C195.217 36.6178 194.359 37.4392 193.924 38.4573C192.824 41.0171 191.694 46.6317 191.694 46.6317L181.213 46.6836C181.213 46.6836 182.844 40.8314 182.777 37.7141C182.717 34.9907 181.327 32.271 180.547 29.5397C179.76 26.7754 178.69 21.3653 178.69 21.3653H189.465L190.951 27.3104L207.363 4.58228Z" fill="#717171" fill-opacity="0.16"/>
<path fill-rule="evenodd" clip-rule="evenodd" d="M185.672 10.6685C187.785 11.9431 189.083 18.9729 189.083 18.9729C189.083 18.9729 178.021 19.1361 172.002 19.1361H166.8L160.483 46.6317H150.823C150.823 46.6317 156.835 16.751 158.254 11.3336C158.715 9.58007 161.405 9.88063 165.949 9.88063H173.205C177.891 9.88063 183.368 9.28266 185.672 10.6685Z" fill="#717171" fill-opacity="0.16"/>
<path fill-rule="evenodd" clip-rule="evenodd" d="M140.698 24.0593C140.698 24.0593 140.999 22.2943 139.676 20.2507C138.547 18.5082 137.503 18.1032 134.53 18.0104C126.137 17.7465 126.3 23.9665 126.3 23.9665L140.698 24.0593ZM149.801 16.9366C151.031 21.3732 148.687 31.7989 148.687 31.7989C148.687 31.7989 136.443 31.5943 129.737 31.7989C127.652 31.8623 125.156 31.5723 124.535 32.5421C123.662 33.9017 124.854 35.9941 125.865 36.8779C127.029 37.8961 129.295 38.0115 130.109 38.1153C135.552 38.8067 146.944 38.2937 146.944 38.2937L144.971 47.0324C144.971 47.0324 128.872 47.8392 120.82 45.9178C119.23 45.5391 117.739 44.7738 116.732 43.6885C116.458 43.3916 116.219 42.9867 115.959 42.6373C115.751 42.3583 115.146 41.4409 114.874 40.716C113.035 35.8152 115.09 26.426 117.104 21.3952C117.338 20.8119 117.631 20.0728 117.94 19.4445C118.326 18.6608 118.653 17.7764 118.962 17.308C119.169 16.9849 119.426 16.7767 119.642 16.4719C119.891 16.1115 120.18 15.7622 120.448 15.4506C121.191 14.5883 122.034 13.9788 123.049 13.2214C126.404 10.7094 132.475 8.7586 139.769 9.50554C142.515 9.78774 146.662 10.7686 148.687 13.5927C149.229 14.347 149.496 15.844 149.801 16.9366Z" fill="#717171" fill-opacity="0.16"/>
<path fill-rule="evenodd" clip-rule="evenodd" d="M105.493 9.8471L114.86 9.7915C114.86 9.7915 109.64 34.5559 106.979 46.6318H96.2036C88.6723 46.6318 81.9656 47.5644 79.1121 42.1727C76.3441 36.9378 78.9857 28.3286 80.2268 22.48C81.1038 18.3409 82.9507 9.88068 82.9507 9.88068L92.6556 9.7915C92.6556 9.7915 89.9134 22.9631 88.7725 29.5398C88.3639 31.8955 87.521 34.1137 88.4011 35.8562C89.2372 37.5138 90.4075 37.6323 93.9743 37.7141C95.1042 37.7404 98.8048 37.7141 98.8048 37.7141L105.493 9.8471Z" fill="#717171" fill-opacity="0.16"/>
<path fill-rule="evenodd" clip-rule="evenodd" d="M61.6487 27.6818C62.6296 24.1968 64.06 20.418 63.878 17.2782C63.6813 13.9196 60.8651 10.8615 59.0481 10.219C53.5751 8.28657 48.4514 10.9879 46.4152 13.191C43.7804 16.045 42.8887 19.3779 41.9561 23.9665C41.2616 27.3734 40.693 30.9701 41.9561 33.6269C44.1927 38.3236 51.1669 37.2981 58.6762 37.3427C59.7908 34.3555 60.7124 31 61.6487 27.6818ZM74.6536 13.9343C75.7236 21.7147 71.6181 30.3019 68.7903 37.7697C71.6737 38.0299 74.2004 37.7293 74.3824 37.9444C74.5717 38.2234 72.45 46.8583 71.7104 46.8804C69.4218 46.9402 61.8386 47.0031 58.6762 47.0031C48.358 47.0031 38.705 47.6756 33.7822 42.5445C31.7832 40.46 30.4011 36.8853 30.0664 34.3702C29.5088 30.1713 30.2075 25.5491 31.1811 21.7373C32.0617 18.2963 33.1911 15.0489 34.8969 12.0763C39.2327 4.50781 46.7755 -1.10997 59.4195 0.186683C61.8717 0.439509 65.3939 1.51323 67.5938 2.78733C67.7459 2.87703 68.2778 3.30033 68.4 3.37481C71.3726 5.26629 74.0813 9.78045 74.6536 13.9343Z" fill="#717171" fill-opacity="0.16"/>
<path fill-rule="evenodd" clip-rule="evenodd" d="M29.0001 9.89163C28.3759 12.7341 27.7517 15.9558 27.0939 18.7647H16.6902C17.4965 15.651 18.1133 12.5558 18.9195 9.84705C22.2488 9.84705 25.344 9.89163 29.0001 9.89163Z" fill="#717171" fill-opacity="0.16"/>
<path fill-rule="evenodd" clip-rule="evenodd" d="M16.3188 21.3654H26.3506C25.0393 28.626 22.4423 40.3373 20.406 48.4891C19.1314 53.5908 18.2806 57.3139 14.8323 60.0074C14.5239 60.2492 14.3461 60.1344 14.0896 60.3793C13.4538 60.9851 10.5149 61.6875 8.88774 61.8653C6.24198 62.1517 3.25107 61.9026 0 61.8359C0.850798 58.726 1.81332 54.9918 2.57128 52.2049C10.4965 53.1638 10.6974 45.6729 12.2317 38.4574C13.1197 34.2884 15.81 23.0376 16.3188 21.3654Z" fill="#717171" fill-opacity="0.16"/>
</svg>
