<svg width="105" height="105" viewBox="0 0 105 105" fill="none" xmlns="http://www.w3.org/2000/svg">
<path d="M57.0545 48.2993H47.3107C47.3107 56.7006 47.2726 65.0499 47.2726 73.4616C47.3871 74.6029 47.4495 75.9314 47.4495 77.2738C47.4495 80.0835 47.1685 82.8273 46.6309 85.4774L46.676 85.2138C45.2468 88.2004 41.5596 87.8188 39.8876 87.295C38.3232 86.4556 37.0849 85.1825 36.3113 83.6355L36.2905 83.5869C36.1379 83.2609 35.9541 82.9834 35.7355 82.7336L35.739 82.7371L27.8268 87.6141C29.0998 90.3544 31.0666 92.5883 33.5051 94.1527L33.5676 94.1909C36.2142 95.672 39.3777 96.5427 42.7424 96.5427C44.4213 96.5427 46.0516 96.3242 47.6021 95.9183L47.4703 95.9495C50.8974 95.0893 53.6898 92.8624 55.2889 89.9L55.3201 89.8341C56.5654 86.6637 57.2834 82.9903 57.2834 79.1504C57.2834 77.8045 57.1932 76.4795 57.0232 75.1787L57.0406 75.3313C57.0926 66.427 57.0406 57.5193 57.0406 48.5456L57.0545 48.2993ZM95.9947 79.7054C95.235 74.9601 92.1443 70.9711 82.9764 67.2526C79.7852 65.7575 76.2401 64.7169 75.1856 62.3096C74.9671 61.7615 74.8422 61.1268 74.8422 60.4642C74.8422 60.0341 74.8942 59.6179 74.9948 59.219L74.9879 59.2536C75.7094 57.3458 77.5236 56.0104 79.6464 56.0104C80.3367 56.0104 80.9923 56.1491 81.5855 56.4023L81.5542 56.3885C83.469 57.0475 84.9814 58.4489 85.7688 60.2457L85.7861 60.2908C90.2677 57.3597 90.2677 57.3597 93.3931 55.4137C92.6438 54.1338 91.8009 53.0238 90.847 52.0248L90.854 52.0317C88.1934 49.2081 84.4298 47.453 80.2535 47.453C79.6603 47.453 79.0741 47.4876 78.5017 47.557L78.5711 47.5501L75.5152 47.9351C72.5459 48.608 70.0102 50.1516 68.1163 52.278L68.1059 52.2919C66.2501 54.5986 65.1262 57.5609 65.1262 60.7868C65.1262 65.2234 67.2526 69.1639 70.5375 71.6475L70.5722 71.6718C76.4899 76.0944 85.1409 77.0657 86.2475 81.2282C87.2881 86.2995 82.4769 87.9263 77.7247 87.3401C74.4052 86.5839 71.6857 84.461 70.149 81.6097L70.1178 81.5508L62.1847 86.1052C63.1178 87.9645 64.2903 89.5532 65.6917 90.9094L65.6951 90.9129C73.2362 98.5234 92.0923 98.1349 95.4778 86.5596C95.8698 85.297 96.0952 83.8471 96.0952 82.3451C96.0952 81.3045 95.9877 80.2881 95.7796 79.31L95.7969 79.4071L95.9947 79.7054ZM0.48262 0.482605H104.514V104.514H0.48262V0.482605Z" fill="#717171" fill-opacity="0.16"/>
</svg>
