<svg width="35" height="35" viewBox="0 0 35 35" fill="none" xmlns="http://www.w3.org/2000/svg">
<path d="M32.1986 0.00313887H2.99816C2.62179 -0.0144908 2.24562 0.0422702 1.89121 0.170205C1.5368 0.298141 1.21111 0.494712 0.932756 0.748658C0.654422 1.00263 0.42889 1.309 0.269107 1.65022C0.109325 1.99146 0.0183986 2.36085 0.0015564 2.73726V32.0034C0.0236044 32.791 0.346406 33.5406 0.903664 34.0977C1.46092 34.6551 2.21038 34.9779 2.99816 35H32.1986C32.9644 34.9659 33.6864 34.633 34.2098 34.0728C34.7333 33.5126 35.0163 32.7698 34.9984 32.0034V2.73726C35.0047 2.37089 34.936 2.00712 34.7967 1.66822C34.6574 1.32934 34.4502 1.02249 34.188 0.766463C33.9259 0.510461 33.6142 0.310718 33.2721 0.179458C32.93 0.0481978 32.5648 -0.0118004 32.1986 0.00313887ZM10.9381 29.1818H5.84165V13.5863H10.9381V29.1818ZM8.51015 11.224C8.15452 11.2364 7.80016 11.1751 7.46935 11.044C7.13852 10.9129 6.83838 10.7148 6.5878 10.4621C6.3372 10.2095 6.14155 9.90773 6.01315 9.57586C5.88474 9.24398 5.82636 8.88913 5.84165 8.53361C5.82592 8.17423 5.88548 7.81556 6.01652 7.48058C6.14756 7.14557 6.34718 6.84167 6.60254 6.58836C6.85793 6.33502 7.16343 6.13788 7.49947 6.00957C7.83552 5.88124 8.19468 5.82459 8.5539 5.84323C8.90953 5.83085 9.2639 5.89212 9.5947 6.02322C9.92553 6.15433 10.2257 6.35243 10.4763 6.60509C10.7269 6.85774 10.9225 7.15948 11.0509 7.49136C11.1793 7.82324 11.2377 8.17808 11.2224 8.53361C11.2381 8.89298 11.1786 9.25166 11.0475 9.58664C10.9165 9.92165 10.7169 10.2256 10.4615 10.4789C10.2061 10.7322 9.90062 10.9293 9.56459 11.0576C9.22853 11.186 8.86937 11.2426 8.51015 11.224ZM29.1801 29.1818H24.0619V20.6513C24.0619 18.6171 23.34 17.2173 21.5246 17.2173C20.9607 17.2221 20.4119 17.4012 19.9539 17.7302C19.4956 18.0591 19.1505 18.5218 18.9654 19.0546C18.8233 19.454 18.7638 19.8781 18.7905 20.3013V29.1818H13.7597V13.5863H18.7905V15.7736C19.2378 14.9519 19.9034 14.2699 20.714 13.8027C21.5246 13.3357 22.4485 13.1018 23.3838 13.1269C26.6866 13.1269 29.1801 15.3143 29.1801 19.9733V29.1818Z" fill="white"/>
</svg>
