<svg width="113" height="61" viewBox="0 0 113 61" fill="none" xmlns="http://www.w3.org/2000/svg">
<path d="M88.5139 23.4375C89.3336 24.3457 89.528 25.9052 89.0994 28.1142C88.6516 30.415 87.7895 32.0564 86.5121 33.0403C85.2336 34.0242 83.2894 34.5161 80.6785 34.5161H76.7391L79.1574 22.0751H83.5942C86.055 22.0751 87.6942 22.5295 88.5139 23.4375ZM33.0512 22.0751H28.6144L26.1959 34.5161H30.135C32.7453 34.5161 34.6901 34.0242 35.9687 33.0403C37.2463 32.0564 38.1081 30.4148 38.556 28.1142C38.9846 25.905 38.7899 24.3457 37.9704 23.4375C37.151 22.5295 35.5118 22.0751 33.0512 22.0751ZM112.89 30.5C112.89 46.8826 87.6428 60.1632 56.5 60.1632C25.3572 60.1632 0.110352 46.8826 0.110352 30.5C0.110352 14.1177 25.3572 0.836853 56.5 0.836853C87.6428 0.836853 112.89 14.1177 112.89 30.5ZM43.8188 32.5495C44.4898 31.3471 44.9672 30.02 45.2497 28.5686C45.9343 25.0447 45.4176 22.3 43.6994 20.3335C41.9821 18.3671 39.249 17.3843 35.5034 17.3843H23.0507L17.2733 47.1103H23.7492L25.2849 39.2081H30.832C33.2789 39.2081 35.2924 38.9512 36.8731 38.4363C38.4535 37.9223 39.8899 37.0606 41.183 35.8499C42.2677 34.8523 43.1459 33.7527 43.8188 32.5495ZM66.6113 39.2081L69.2997 25.374C69.8468 22.5607 69.4363 20.5249 68.0699 19.2684C66.7024 18.0131 64.2189 17.3843 60.6172 17.3843H54.8937L56.43 9.48091H50.0054L44.2269 39.2079H50.6516L53.9613 22.1773H59.0964C60.7402 22.1773 61.8148 22.4492 62.3195 22.9935C62.8243 23.5379 62.9315 24.5585 62.6406 26.0544L60.0847 39.2079H66.6113V39.2081ZM94.2427 20.3338C92.5256 18.3673 89.7924 17.3845 86.0469 17.3845H73.5939L67.8163 47.1106H74.2924L75.8279 39.2083H81.3752C83.8219 39.2083 85.8356 38.9514 87.4161 38.4365C88.9965 37.9225 90.4329 37.0609 91.726 35.8501C92.8118 34.8523 93.6894 33.753 94.3618 32.5497C95.0337 31.3473 95.5099 30.0202 95.7927 28.5689C96.4775 25.0447 95.9608 22.3 94.2427 20.3338Z" fill="#717171" fill-opacity="0.16"/>
</svg>
