<svg width="99" height="75" viewBox="0 0 99 75" fill="none" xmlns="http://www.w3.org/2000/svg">
<path d="M85.2009 43.0511C82.0959 43.0552 79.0324 43.7652 76.2421 45.1275C75.3685 43.6777 74.6939 42.1171 74.2364 40.4874C73.9735 39.21 73.9128 37.8993 74.0563 36.6031C74.3581 35.1767 74.7497 33.7708 75.2287 32.3938C75.211 32.2137 75.0133 31.3627 73.0252 31.3344C71.0371 31.3062 69.3244 31.7123 69.1408 32.2384C68.7955 33.1995 68.5182 34.1836 68.3109 35.1835C66.6655 39.2427 64.6402 43.1373 62.2619 46.8154C60.9294 44.631 60.3814 42.0577 60.7082 39.5199C61.01 38.0935 61.4016 36.6876 61.8805 35.3106C61.8629 35.1305 61.6651 34.2795 59.677 34.2512C57.6889 34.223 55.9763 34.6291 55.7927 35.1552C55.609 35.6814 55.376 36.9209 54.9628 38.1003C54.5497 39.2797 49.726 50.0571 48.4618 52.8362C47.812 54.2487 47.2506 55.3999 46.8551 56.1768C46.8363 56.2272 46.8127 56.2757 46.7844 56.3216C46.4313 56.989 46.2442 57.3527 46.2442 57.3527V57.3703C45.9723 57.8577 45.6827 58.3096 45.5379 58.3096C45.2854 57.3008 45.2975 56.2438 45.5732 55.241C46.2795 51.5014 48.0098 45.689 47.9921 45.4877C47.9921 45.3782 48.317 44.3683 46.8727 43.8457C46.5378 43.6863 46.1616 43.6346 45.7961 43.6979C45.4305 43.7611 45.0936 43.9361 44.8317 44.1988C44.7045 44.1988 44.6163 44.506 44.6163 44.506C44.6163 44.506 46.1877 37.9696 41.6182 37.9696C39.8388 38.3276 38.1489 39.0377 36.648 40.0584C35.1471 41.079 33.8654 42.3895 32.8784 43.9127C31.6495 44.5802 29.0329 46.0068 26.2326 47.5429C25.1732 48.1397 24.0644 48.7364 23.0368 49.3085C22.9662 49.2379 22.892 49.1461 22.8214 49.0754C17.2597 43.15 7.03669 38.969 7.4781 31.0413C7.64054 28.1528 8.63282 20.5676 27.1083 11.3546C42.3139 3.86131 54.4155 5.93768 56.5095 10.5424C59.5075 17.1176 50.0261 29.3252 34.3156 31.0943C32.5775 31.4469 30.7825 31.4044 29.0631 30.9698C27.3437 30.5352 25.744 29.7197 24.3822 28.5836C23.5524 27.6796 23.4252 27.6266 23.118 27.8067C22.613 28.0786 22.9379 28.8908 23.118 29.3605C23.7173 30.4451 24.528 31.3986 25.5021 32.1646C26.4761 32.9306 27.5939 33.4937 28.7892 33.8204C34.9697 35.156 41.4136 34.5174 47.2117 31.9948C56.7461 28.3117 64.1617 18.0711 61.9865 9.49365C59.8006 0.78912 45.3543 -2.08179 31.6813 2.78428C23.1171 5.66604 15.2039 10.2052 8.39269 16.143C0.860539 23.1878 -0.329494 29.3075 0.157819 31.8747C1.92344 40.9783 14.4629 46.9002 19.4808 51.2966C19.2266 51.4414 18.9935 51.5685 18.7958 51.6744C16.285 52.921 6.71535 57.9247 4.31763 63.2146C1.60916 69.2177 4.75197 73.5082 6.82835 74.0873C9.95706 74.8362 13.2415 74.5895 16.2233 73.3816C19.205 72.1737 21.7352 70.0649 23.4605 67.3496C24.9298 65.0975 25.8329 62.5235 26.0929 59.8471C26.353 57.1707 25.9624 54.471 24.9543 51.9781C24.9372 51.9378 24.9133 51.9008 24.8836 51.8687L26.8505 50.7139C28.1324 49.9547 29.3966 49.252 30.4807 48.6729C29.7455 50.7932 29.314 53.0069 29.1988 55.2481C28.9492 58.6832 30.0005 62.0865 32.1439 64.7824C32.47 65.0632 32.8487 65.2764 33.2578 65.4098C33.667 65.5431 34.0985 65.594 34.5275 65.5593C36.6462 65.5593 37.6173 63.7937 38.6802 61.6961C39.9797 59.1324 41.1521 56.1521 41.1521 56.1521C41.1521 56.1521 39.6902 64.2068 43.6628 64.2068C45.1071 64.2068 46.569 62.3282 47.2223 61.3818V61.3995C47.2223 61.3995 47.2576 61.3465 47.3318 61.2194L47.5648 60.8416V60.8062C48.144 59.7963 49.4435 57.501 51.3751 53.6908C53.8681 48.7788 56.2694 42.638 56.2694 42.638C56.501 43.9875 56.8207 45.3205 57.2263 46.6283C57.808 48.2136 58.4958 49.7579 59.2851 51.2507C58.7059 52.0629 58.3458 52.5149 58.3458 52.5149L58.3634 52.5325C57.8938 53.147 57.3888 53.8144 56.8273 54.4641C55.1568 56.3007 53.6069 58.2434 52.1873 60.2801C51.9763 60.6222 51.9038 61.0318 51.9845 61.4255C52.0652 61.8192 52.2931 62.1673 52.6216 62.3988C53.365 62.7856 54.2123 62.9254 55.0405 62.7979C56.2886 62.7274 57.5159 62.4469 58.6706 61.968C59.7865 61.5753 60.8393 61.0222 61.7958 60.326C62.7818 59.6429 63.5755 58.7176 64.1006 57.639C64.6256 56.5605 64.8644 55.365 64.7938 54.1675C64.6828 52.6591 64.2975 51.1836 63.6568 49.8135C63.8369 49.5592 64.0099 49.3085 64.1794 49.0542C66.187 46.0576 67.9965 42.9328 69.5963 39.7C69.8279 41.0495 70.1476 42.3825 70.5533 43.6903C71.033 45.0602 71.6235 46.3888 72.3189 47.6629C70.0093 49.4399 68.1901 51.7756 67.0326 54.45C65.8956 57.7376 66.7784 59.2172 68.4451 59.5597C69.3572 59.6226 70.2691 59.4358 71.083 59.0194C72.2796 58.6261 73.4069 58.047 74.4235 57.3032C75.4955 56.6706 76.3933 55.7814 77.0362 54.7156C77.6791 53.6499 78.047 52.441 78.1066 51.1977C78.0265 49.9567 77.7462 48.7368 77.2768 47.5852C80.3246 46.3945 83.6292 46.0149 86.8677 46.4835C95.4627 47.4934 97.1613 52.8574 96.8364 55.1174C96.684 55.9186 96.3619 56.6779 95.8917 57.3442C95.4215 58.0106 94.814 58.5685 94.1103 58.9806C93.5135 59.3584 93.3157 59.4856 93.3687 59.7575C93.4393 60.1565 93.7218 60.1353 94.2338 60.0647C95.5293 59.6621 96.6722 58.8762 97.5119 57.8108C98.3516 56.7454 98.8487 55.4505 98.9375 54.0969C99.2094 48.8 94.1526 42.9911 85.2115 43.0441L85.2009 43.0511ZM18.884 65.3969C16.0308 68.5044 12.0581 69.6767 10.3419 68.6845C8.49863 67.6251 9.22254 63.0345 12.7255 59.7433C14.8035 57.8728 17.0495 56.1978 19.4349 54.7396C19.8516 54.4853 20.466 54.1251 21.2005 53.6802L21.3983 53.5707L21.8326 53.2988C22.4585 55.3956 22.5152 57.6212 21.997 59.7472C21.4789 61.8732 20.4045 63.8231 18.884 65.3969ZM39.6513 51.2719C38.659 53.6908 36.5827 59.8881 35.3185 59.5421C34.2344 59.2525 33.5529 54.5559 35.1031 49.9159C35.8858 47.6822 37.0259 45.5904 38.4789 43.7221C40.0327 41.9882 41.7489 41.4091 42.162 42.1153C41.7851 45.2754 40.9389 48.3615 39.6513 51.2719ZM56.7885 59.4714C56.3718 59.6868 55.9763 59.8246 55.7962 59.7257C55.6691 59.6551 55.9763 59.3726 55.9763 59.3726C55.9763 59.3726 58.1268 57.0596 58.9743 56.0143C59.4616 55.3999 60.0337 54.6795 60.6552 53.8638V54.0969C60.6552 56.8583 57.982 58.7193 56.792 59.4785L56.7885 59.4714ZM70.0095 56.4557C69.7023 56.2403 69.7552 55.5164 70.7863 53.26C71.5033 51.8108 72.5049 50.5209 73.7314 49.4674C73.9194 50.0019 74.0173 50.564 74.021 51.1306C74.0349 52.3367 73.6493 53.5134 72.9242 54.4774C72.1992 55.4413 71.1756 56.1381 70.013 56.4593L70.0095 56.4557Z" fill="#717171" fill-opacity="0.16"/>
</svg>
