<svg width="35" height="35" viewBox="0 0 35 35" fill="none" xmlns="http://www.w3.org/2000/svg">
<path d="M0 16.9319V16.8828C0.438925 11.1405 2.48985 6.83335 6.0528 4.1103C9.56732 1.33815 13.3755 0.00117967 17.5242 0.00117967C21.8682 -0.047927 25.92 1.43636 29.533 4.40653C33.1943 7.32758 35 11.6838 35 17.3263V17.6733C35 23.3665 33.1943 27.6229 29.533 30.544C25.8716 33.5141 21.8197 35 17.4758 35H17.2805C13.0334 34.9509 9.1284 33.465 5.51703 30.4949C1.90409 27.5738 0.0499844 23.0687 0.00156201 16.9303L0 16.9319ZM16.4495 9.16037V1.33815H15.278C15.0344 1.63596 14.8391 1.98129 14.6439 2.2791C14.4486 2.57691 14.2534 2.87313 14.0581 3.22004C13.8629 3.51785 13.6192 3.91387 13.4724 4.2101C13.2771 4.50791 13.1303 4.80413 12.9834 5.15105C12.6898 5.64687 12.4461 6.1411 12.2509 6.58623C12.0072 7.03136 11.8119 7.47807 11.6651 7.87409C11.9588 8.0721 12.2993 8.31922 12.6898 8.46812C13.1287 8.61703 13.5692 8.76593 14.0081 8.86415C14.497 8.96394 14.936 9.01305 15.3265 9.06216C15.7654 9.11126 16.1559 9.16196 16.4495 9.16196V9.16037ZM18.5005 1.33973V9.11126C18.7441 9.11126 19.0378 9.16037 19.3299 9.11126C19.6236 9.11126 19.9641 9.06216 20.2577 9.01147C20.7951 8.91167 21.4292 8.76435 21.9182 8.61545C22.4555 8.41743 22.9428 8.17032 23.2849 7.87251C22.6992 6.43733 22.065 5.29837 21.4292 4.20851C20.7935 3.11866 20.0625 2.1793 19.2815 1.38726V1.33815H18.5005V1.33973ZM13.2287 1.78486V1.73576C12.8866 1.88466 12.5445 2.13178 12.154 2.28068C11.8119 2.42959 11.373 2.6276 11.0309 2.82561C10.3468 3.17252 9.66417 3.56854 8.98001 4.01367C8.34583 4.4588 7.71009 4.95462 7.17432 5.44885C7.36957 5.64687 7.61325 5.84488 7.8085 5.99378C8.00375 6.14269 8.24742 6.3407 8.49266 6.53871C8.68791 6.6385 8.93158 6.78583 9.17682 6.98384C9.42049 7.13274 9.71415 7.33075 10.0062 7.52876C10.3968 6.63692 10.7873 5.69756 11.2762 4.85482C11.7651 3.96298 12.3008 3.12183 12.8382 2.37889C12.8866 2.2791 12.9366 2.18088 13.0334 2.08109C13.0818 2.03198 13.1318 1.88466 13.2287 1.78486ZM28.1646 5.44727V5.39816C26.9447 4.45722 25.87 3.66517 24.7969 3.17094C23.7238 2.6767 22.6492 2.18088 21.6729 1.78486C22.4539 2.57691 23.1381 3.56696 23.577 4.50791C24.0659 5.49796 24.5533 6.53712 24.9438 7.52718C25.139 7.42738 25.3827 7.32917 25.6764 7.13116C25.92 6.98225 26.2621 6.83335 26.5558 6.68603C26.8494 6.48802 27.0931 6.29 27.3852 6.09199C27.6789 5.84488 27.9709 5.64687 28.1662 5.44885L28.1646 5.44727ZM27.3352 16.4868H32.9491C32.9491 14.6556 32.5586 12.9226 31.826 11.1405C31.1418 9.40749 30.1656 7.97231 28.9456 6.73513V6.68603C28.702 7.08205 28.3599 7.42896 28.0178 7.67608C27.6273 7.9232 27.2852 8.12121 26.8947 8.31922C26.651 8.46812 26.4058 8.66614 26.1621 8.76435C25.9185 8.91325 25.5764 9.01147 25.3327 9.16037C25.528 9.55639 25.7232 10.0015 25.9185 10.3975C26.0653 10.8427 26.309 11.3385 26.4074 11.7836C26.701 12.5757 26.8963 13.4168 27.0915 14.2595C27.2384 15.0025 27.3352 15.7945 27.3352 16.4868ZM9.66573 9.16037V9.11126C9.27523 8.91325 8.8363 8.76435 8.49422 8.56634C8.15214 8.31922 7.81006 8.07052 7.51796 7.87251C7.22431 7.7236 6.93221 7.52559 6.68854 7.32758C6.44486 7.12957 6.24961 6.93156 6.05436 6.73355C4.78444 7.97072 3.85817 9.3568 3.27242 10.9916C2.63824 12.6248 2.19775 14.4576 2.0025 16.4377H8.00687C8.00687 15.0516 8.20212 13.7146 8.54421 12.3777C8.83786 10.9916 9.27523 9.95241 9.66573 9.16037ZM16.4495 16.4377V10.7445C16.059 10.7936 15.5701 10.7936 15.1312 10.7445C14.6423 10.6954 14.155 10.5464 13.716 10.3975C13.3255 10.2977 12.8366 10.1995 12.4461 10.0506C12.0072 9.95083 11.5667 9.75282 11.2262 9.55481C10.9325 10.0506 10.6888 10.6447 10.4936 11.2878C10.2499 11.8818 10.1031 12.525 9.95626 13.119C9.85786 13.713 9.80944 14.3562 9.76101 14.9011C9.71259 15.446 9.66261 15.991 9.66261 16.4361H16.448L16.4495 16.4377ZM18.5005 10.8443V16.4377H25.7248C25.7248 16.1399 25.7248 15.7945 25.6764 15.3985C25.5779 15.0516 25.5295 14.6065 25.4811 14.2104C25.3343 13.6164 25.1874 12.9733 24.9922 12.3792C24.7969 11.8343 24.6017 11.2894 24.358 10.8443C24.2596 10.5971 24.1628 10.2993 24.0644 10.1013C23.9175 9.8542 23.7707 9.7053 23.6739 9.55639C23.1365 9.95241 22.4039 10.1995 21.5261 10.3975C20.6967 10.5956 19.7204 10.7936 18.841 10.8427H18.4989L18.5005 10.8443ZM8.00531 18.0709H2.00094C2.00094 18.912 2.14777 19.853 2.39144 20.9919C2.63511 22.18 3.12402 23.2698 3.66136 24.4579C3.90503 25.0519 4.19869 25.646 4.49078 26.24C4.83286 26.7849 5.22337 27.379 5.61387 27.9239C5.90753 27.7259 6.19963 27.577 6.4433 27.4281C6.73696 27.2792 7.07748 27.0811 7.37113 26.9322C7.71321 26.7833 8.0553 26.6344 8.4458 26.4364C8.78788 26.2875 9.2268 26.0895 9.66573 25.8915C9.27523 24.6543 8.8363 23.4663 8.54264 22.1293C8.20056 20.8414 8.00531 19.5551 8.00531 18.12V18.0709ZM16.4495 23.8623V18.0709H9.66417C9.66417 18.4669 9.71259 19.0609 9.811 19.6549C9.85942 20.249 10.0062 20.8921 10.1047 21.5368C10.2999 22.2307 10.4467 22.9229 10.642 23.517C10.8372 24.111 11.0325 24.6068 11.2277 25.0519C12.1072 24.705 12.985 24.4579 13.5708 24.309C14.2049 24.111 14.7907 23.9621 15.3764 23.913H15.9138C16.109 23.8639 16.3043 23.8639 16.4511 23.8639L16.4495 23.8623ZM18.5005 18.0709V23.8132C18.8426 23.8623 19.2331 23.913 19.6236 23.9621C20.0625 24.0112 20.5998 24.111 21.0387 24.2092L21.7713 24.3581C22.015 24.4579 22.3087 24.507 22.5523 24.5561C22.846 24.6559 23.1381 24.705 23.4317 24.8032C23.6754 24.903 23.9207 24.9521 24.1159 25.0503C24.7501 23.4172 25.1406 22.0802 25.3858 20.9412C25.6295 19.8514 25.7279 18.912 25.7279 18.12V18.0709H18.5036H18.5005ZM32.9491 18.12V18.0709H27.3352V18.3687C27.2868 19.3096 27.14 20.3979 26.9447 21.5368C26.7495 22.6267 26.3105 23.913 25.7248 25.4971C26.5058 25.8931 27.2384 26.2891 27.8241 26.6851C28.4099 27.0811 28.9472 27.5263 29.3377 27.9223C30.1671 27.0811 30.8997 25.9422 31.5339 24.4563C32.1681 23.0211 32.6086 21.5353 32.8522 19.9512C32.9007 19.6534 32.9007 19.3571 32.9506 19.0593V18.1184L32.9491 18.12ZM16.4495 33.1688V25.4464C15.2296 25.6444 14.2034 25.8915 13.4224 26.0895C12.6414 26.2875 12.0556 26.4855 11.6651 26.6835C11.9588 27.4265 12.2509 28.0696 12.5445 28.6637C12.8382 29.2086 13.1787 29.8026 13.4724 30.2968C13.5708 30.4949 13.766 30.6929 13.9113 30.94C14.0581 31.138 14.155 31.3851 14.3018 31.5831C14.4486 31.8302 14.5954 32.1281 14.7407 32.4243C14.936 32.6714 15.0828 32.9692 15.278 33.1672L16.4495 33.1688ZM18.5005 33.1688H19.6236C20.0625 32.8219 20.503 32.3276 20.8435 31.7827C21.234 31.2378 21.6729 30.5947 21.9666 30.0497C22.3087 29.4066 22.6507 28.8126 22.9428 28.2185C23.2349 27.6245 23.4802 27.0796 23.6754 26.6835C23.1381 26.4855 22.4055 26.2875 21.6745 26.0895C20.9435 25.8915 19.9172 25.6935 18.502 25.4955V33.1688H18.5005ZM28.1646 29.1104V29.0613C28.0662 28.9124 27.871 28.7143 27.7257 28.5654C27.5804 28.4165 27.3352 28.2185 27.0915 28.0696C26.8963 27.9207 26.6526 27.7718 26.359 27.6245C26.0653 27.4772 25.6748 27.2776 25.3343 27.0796C25.139 27.4756 24.7969 28.1694 24.3096 29.1088C23.8707 30.0497 23.0897 31.1887 22.1134 32.4259C23.3333 32.2278 24.408 31.7827 25.3843 31.1887C26.4589 30.6438 27.3852 29.9008 28.1662 29.1088L28.1646 29.1104ZM10.0062 27.5263V27.4772C9.66417 27.6752 9.12684 27.9223 8.59107 28.171C8.00531 28.4181 7.37113 28.7159 6.78538 29.1119C7.12746 29.4098 7.46954 29.706 7.76164 29.904C8.0553 30.1511 8.39581 30.3491 8.68947 30.5471C9.2268 30.894 9.86098 31.241 10.4952 31.5372C11.1293 31.8334 11.9103 32.1312 12.8866 32.429C12.5445 32.033 12.3008 31.5372 12.0572 31.1412C11.8135 30.7451 11.5198 30.3491 11.2762 29.9531C11.0325 29.5571 10.8372 29.1119 10.642 28.7159C10.3983 28.3199 10.2031 27.9239 10.0078 27.5279L10.0062 27.5263Z" fill="white"/>
</svg>
