<svg width="71" height="71" viewBox="0 0 71 71" fill="none" xmlns="http://www.w3.org/2000/svg">
<path d="M42.1562 17.75C43.4875 17.75 44.375 16.8625 44.375 15.5312V11.0938C44.375 7.32187 41.4906 4.4375 37.7188 4.4375H15.5312C11.7594 4.4375 8.875 7.32187 8.875 11.0938V59.9062C8.875 63.6781 11.7594 66.5625 15.5312 66.5625H37.7188C41.4906 66.5625 44.375 63.6781 44.375 59.9062V51.0312C44.375 49.7 43.4875 48.8125 42.1562 48.8125H13.3125V17.75H42.1562ZM24.4062 55.4688H28.8438C30.175 55.4688 31.0625 56.3562 31.0625 57.6875C31.0625 59.0188 30.175 59.9062 28.8438 59.9062H24.4062C23.075 59.9062 22.1875 59.0188 22.1875 57.6875C22.1875 56.3562 23.075 55.4688 24.4062 55.4688Z" fill="#C32865"/>
<path d="M31.0625 42.1562C30.3969 42.1562 29.9531 41.9344 29.5094 41.4906L22.8531 34.8344C21.9656 33.9469 21.9656 32.6156 22.8531 31.7281L29.5094 25.0719C30.3969 24.1844 31.7281 24.1844 32.6156 25.0719C33.5031 25.9594 33.5031 27.2906 32.6156 28.1781L27.5125 33.2812L32.6156 38.3844C33.5031 39.2719 33.5031 40.6031 32.6156 41.4906C32.1719 41.9344 31.7281 42.1562 31.0625 42.1562Z" fill="#C32865"/>
<path d="M53.25 42.1562C52.5844 42.1562 52.1406 41.9344 51.6969 41.4906C50.8094 40.6031 50.8094 39.2719 51.6969 38.3844L56.8 33.2812L51.6969 28.1781C50.8094 27.2906 50.8094 25.9594 51.6969 25.0719C52.5844 24.1844 53.9156 24.1844 54.8031 25.0719L61.4594 31.7281C62.3469 32.6156 62.3469 33.9469 61.4594 34.8344L54.8031 41.4906C54.3594 41.9344 53.9156 42.1562 53.25 42.1562Z" fill="#C32865"/>
<path d="M37.7188 44.375C37.4969 44.375 37.0531 44.375 36.8313 44.1531C35.7219 43.7093 35.2781 42.3781 35.9438 41.2687L44.8188 23.5187C45.2625 22.4093 46.5938 21.9656 47.7031 22.6312C48.8125 23.075 49.2563 24.4062 48.5906 25.5156L39.7156 43.2656C39.2719 43.9312 38.6063 44.375 37.7188 44.375Z" fill="#C32865"/>
</svg>
