<svg width="71" height="71" viewBox="0 0 71 71" fill="none" xmlns="http://www.w3.org/2000/svg">
<g clip-path="url(#clip0_209_2)">
<path d="M59.1667 57.9833C59.1667 58.6365 58.6365 59.1666 57.9833 59.1666C57.3301 59.1666 56.8 58.6365 56.8 57.9833C56.8 57.3301 57.3301 56.8 57.9833 56.8C58.6365 56.8 59.1667 57.3301 59.1667 57.9833ZM55.6167 28.4H60.35C61.0056 28.4 61.5333 28.9277 61.5333 29.5833C61.5333 30.2389 61.0056 30.7666 60.35 30.7666H55.6167C54.9611 30.7666 54.4333 30.2389 54.4333 29.5833C54.4333 28.9277 54.9611 28.4 55.6167 28.4ZM48.5167 23.6666C46.5713 23.6666 44.9667 25.2712 44.9667 27.2166V60.35C44.9667 62.2954 46.5713 63.9 48.5167 63.9H67.45C69.3954 63.9 71 62.2954 71 60.35V27.2166C71 25.2712 69.3954 23.6666 67.45 23.6666H48.5167ZM48.5167 26.0333H67.45C68.1269 26.0333 68.6333 26.5398 68.6333 27.2166V60.35C68.6333 61.0268 68.1269 61.5333 67.45 61.5333H48.5167C47.8398 61.5333 47.3333 61.0268 47.3333 60.35V27.2166C47.3333 26.5398 47.8398 26.0333 48.5167 26.0333ZM33.1333 46.15C33.1333 46.8032 32.6032 47.3333 31.95 47.3333C31.2968 47.3333 30.7667 46.8032 30.7667 46.15C30.7667 45.4968 31.2968 44.9666 31.95 44.9666C32.6032 44.9666 33.1333 45.4968 33.1333 46.15ZM3.55 7.09998C1.6046 7.09998 0 8.70458 0 10.65V48.5166C0 50.462 1.6046 52.0666 3.55 52.0666H26.0333V56.8H22.4833C21.8278 56.8 21.3 57.3277 21.3 57.9833C21.3 58.6389 21.8278 59.1666 22.4833 59.1666H41.4167C42.0722 59.1666 42.6 58.6389 42.6 57.9833C42.6 57.3277 42.0722 56.8 41.4167 56.8H37.8667V52.0666H41.4167C42.9976 52.0666 42.9692 49.7 41.4167 49.7H3.55C2.87313 49.7 2.36667 49.1935 2.36667 48.5166V42.6H41.4167C42.0722 42.6 42.6 42.0722 42.6 41.4166C42.6 40.7611 42.0722 40.2333 41.4167 40.2333H2.36667V10.65C2.36667 9.97311 2.87313 9.46664 3.55 9.46664H60.35C61.0269 9.46664 61.5333 9.97311 61.5333 10.65V20.1166C61.5333 21.6905 63.9 21.6715 63.9 20.1166V10.65C63.9 8.70458 62.2954 7.09998 60.35 7.09998H3.55ZM28.4 52.0666H35.5V56.8H28.4V52.0666Z" fill="#C32865"/>
</g>
<defs>
<clipPath id="clip0_209_2">
<rect width="71" height="71" fill="white"/>
</clipPath>
</defs>
</svg>
