<svg width="71" height="71" viewBox="0 0 71 71" fill="none" xmlns="http://www.w3.org/2000/svg">
<path d="M62.6896 23.8902L55.1793 9.52923C54.7411 8.69245 53.6071 8.00687 52.6638 8.00687H35.3783C35.3594 8.00515 35.3405 8.00172 35.3216 8C35.3062 8 35.2907 8.00515 35.2753 8.00687H18.2991C17.3541 8.00687 16.2183 8.69073 15.7733 9.52407L8.28354 23.6084C7.83852 24.4435 7.92786 25.7528 8.4777 26.5225L34.2529 62.4525C34.5295 62.8374 34.8972 63.0333 35.2632 63.0333C35.6275 63.0333 35.9918 62.8443 36.2718 62.4645L62.4697 26.7975C63.0281 26.0346 63.1278 24.7287 62.6896 23.8919V23.8902ZM58.5899 23.4692H49.3837L53.071 12.9124L58.5899 23.4692ZM38.8818 11.4451H49.9404L46.5091 21.2665L38.8818 11.4451ZM43.8699 23.4692H27.8886L35.4419 12.6169L43.8699 23.4692ZM24.8439 21.8301L21.3971 11.4451H32.0725L24.8439 21.8301ZM44.5417 26.9057L35.3045 53.3527L26.5277 26.9057H44.5417ZM31.4505 52.65L12.9829 26.9057H22.9074L31.4505 52.65ZM48.1826 26.9057H58.126L39.1739 52.7101L48.1826 26.9057ZM18.1101 12.4502L21.7665 23.4692H12.2492L18.1101 12.4502Z" fill="#C32865"/>
</svg>
