<svg width="113" height="113" viewBox="0 0 113 113" fill="none" xmlns="http://www.w3.org/2000/svg">
<path d="M8.0273 56.1757C8.0273 49.114 9.47047 42.535 12.2027 36.5928L35.1548 99.5067C19.1053 91.803 8.03244 75.2707 8.03244 56.1706L8.0273 56.1757ZM88.7523 53.767C88.7523 57.9424 87.1448 62.5955 85.0596 69.3337L80.2422 85.3832L62.7496 33.5421C65.6411 33.3829 68.3682 33.0593 68.3682 33.0593C70.9361 32.7358 70.6177 29.0483 68.0446 29.2075C68.0446 29.2075 60.1817 29.6902 55.205 29.6902C50.3876 29.6902 42.5247 29.2075 42.5247 29.2075C39.9568 29.0483 39.6332 32.9001 42.2011 33.0593C42.2011 33.0593 44.6098 33.3829 47.1777 33.5421L54.7223 54.0854L44.1271 85.7016L26.6344 33.5421C29.5259 33.3829 32.0938 33.0593 32.0938 33.0593C34.8209 32.7358 34.5025 29.0483 31.7703 29.2075C31.7703 29.2075 24.0665 29.6902 18.9307 29.6902H15.88C24.5493 16.6915 39.3148 8.02217 56.1655 8.02217C68.6866 8.02217 80.0779 12.8396 88.7472 20.7025C88.4236 20.5433 88.2644 20.5433 88.1052 20.5433C83.2878 20.5433 79.9187 24.7188 79.9187 29.2126C79.9187 33.0645 82.3274 36.4336 84.7361 40.4498C86.5028 43.6597 88.7472 47.8351 88.7472 53.7722L88.7523 53.767ZM42.5298 102.398L56.9769 60.346L71.9016 100.95C71.9016 101.273 72.0608 101.433 72.2252 101.592C67.2486 103.359 61.7943 104.319 56.1757 104.319C51.5227 104.319 46.8645 103.677 42.535 102.393L42.5298 102.398ZM98.382 33.0645C102.234 39.967 104.319 47.83 104.319 56.1757C104.319 73.9919 94.6893 89.3994 80.4066 97.9044L95.1721 55.2102C97.8992 48.4668 98.7055 42.8534 98.7055 38.036C98.7055 36.2692 98.7055 34.672 98.382 33.0645ZM56.1757 0C87.1499 0 112.351 25.1964 112.351 56.1757C112.351 87.1551 87.1551 112.351 56.1757 112.351C25.1964 112.351 0 87.1551 0 56.1757C0 25.1964 25.1964 0 56.1757 0ZM56.1757 109.778C85.7068 109.778 109.784 85.7016 109.784 56.1706C109.784 26.6396 85.7068 2.56278 56.1757 2.56278C26.6447 2.56278 2.56792 26.6396 2.56792 56.1706C2.56792 85.7016 26.6447 109.778 56.1757 109.778Z" fill="#717171" fill-opacity="0.16"/>
</svg>
